<?xml version="1.0"?><svg width="393.235" height="491.029" xmlns="http://www.w3.org/2000/svg" xmlns:undefined="http://www.w3.org/2000/svg">
 <title>Medical symbol</title>
 <g>
  <title>Layer 1</title>
  <g id="Layer_1">
   <path id="svg_1" stroke-linejoin="bevel" stroke="#FFFFFF" d="m194.546997,645.528992l2.141998,0l11,-449.253998l-24.141998,0l11,449.253998z"/>
   <g id="svg_2">
    <path fill="black" id="svg_3" stroke-linejoin="bevel" stroke="#FFFFFF" d="m170.192001,119.679993c-21.710007,2.73999 -41.389999,-22.669983 -31.369995,-28.639984c0.970001,-2.25 0.689987,-3.420013 -1.630005,-2.990005c-23.599998,3.25 -38.520004,-16.360001 -35.919998,-36.810013c0.169998,-1.369995 -0.771004,-1.649994 -1.530006,-1.699982c-0.879997,-0.060013 -1.579994,0.98999 -2.019997,1.699982c-7.330002,11.820007 -19.75,19.01001 -31.080002,26.590012c-13,8.710007 -33.119999,19.87999 -41.810999,21.37999c-7.68,1.320007 -19.75,2.730011 -24.129999,-3.529999c-0.899,-1.5 -0.01,-1.660004 1.07,-2.25c14.399999,-7.229996 15.91,-5.62999 42.299999,-22.329987c23.160004,-14.660004 45.510002,-33.920013 67,-44.800003c9.450005,-4.779999 38.75,-9.150009 48.970001,4.899994c17.410004,23.940002 -7.029007,34.37001 -7.729004,38.600006c-1.349991,8.169998 6.689011,23.349991 27.600006,17.809998l2.75,-0.87001l0.649994,29.130005l-0.940002,0.520004c-4.079987,2.009003 -8.188995,3.039993 -12.179993,3.289993z"/>
    <path id="svg_4" stroke-linejoin="bevel" stroke="#FFFFFF" d="m92.031998,64.509003c0.700005,-0.790009 3.82,-2.290009 4,-1c0.480003,3.399994 2.290001,8.029999 4.290001,11.789993c0.68,1.270004 -0.809998,2.889999 -1.75,4c-13.399002,11.320007 -29.209999,22.090012 -42.869999,28.150009c-4.389999,1.529999 -9.259998,2.389984 -13.950001,2.009995c-3.159,-0.25 -7.549999,-0.069992 -9.069,-2.849991c-0.350998,-0.650009 0.149002,-1.529999 0.580002,-2.12001c21.209999,-8.749008 37.469002,-21.059006 58.768997,-39.979996z"/>
    <path id="svg_5" stroke-linejoin="bevel" stroke="#FFFFFF" d="m100.571999,82.270004c0.620003,-0.660004 1.700005,-1.440002 2.93,-0.930008c2.881004,3.350006 4.471001,4.940002 7.850998,6.429993c1.080002,0.470001 2.450005,1.960022 0.649002,3.5c-18.919998,16.040009 -33.25,29.690002 -52.028999,24.550018c-0.600998,-0.160004 -0.459999,-2.050018 0.069,-2.360016c11.140999,-6.419983 23.959999,-13.480988 40.529999,-31.189987z"/>
    <path id="svg_6" stroke-linejoin="bevel" stroke="#FFFFFF" d="m115.952003,91.98999c2.949997,-1.98999 0.489998,0.450012 13.299995,1.400009c1.660004,0.12001 -0.188995,3.639999 -0.778992,5.220001c-5.860008,8.529999 -15.860008,16.349991 -24.290009,20.419998c-4.080002,1.980011 -9.580002,3.01001 -13.640999,0.929993c-0.399002,-0.199982 -0.488998,-0.919983 -0.720001,-1.139984c-0.830002,-0.839996 5.470001,-5.430008 11.290001,-10.710007c5.521004,-5.021011 13.201004,-13.440994 14.840004,-16.12001z"/>
    <path id="svg_7" stroke-linejoin="bevel" stroke="#FFFFFF" d="m223.042999,119.679993c21.710007,2.73999 41.390015,-22.669983 31.369995,-28.639984c-0.970993,-2.25 -0.689987,-3.420013 1.630005,-2.990005c23.600006,3.25 38.519989,-16.360001 35.920013,-36.810013c-0.170013,-1.369995 0.769989,-1.649994 1.528992,-1.699982c0.880981,-0.060013 1.579987,0.98999 2.020996,1.699982c7.329987,11.820007 19.75,19.01001 31.079987,26.590012c13,8.710007 33.120026,19.87999 41.810028,21.37999c7.681,1.320007 19.75,2.730011 24.129974,-3.529999c0.900024,-1.5 0.011017,-1.660004 -1.069,-2.25c-14.399994,-7.229996 -15.910004,-5.62999 -42.299988,-22.329987c-23.160004,-14.660004 -45.510986,-33.920013 -67,-44.800003c-9.450012,-4.779999 -38.75,-9.150009 -48.971008,4.899994c-17.409988,23.940002 7.030014,34.37001 7.730011,38.600006c1.349991,8.169998 -6.690002,23.349991 -27.600998,17.809998l-2.75,-0.87001l-0.649002,29.130005l0.938995,0.520004c4.080002,2.009003 8.190994,3.039993 12.181,3.289993z"/>
    <path id="svg_8" stroke-linejoin="bevel" stroke="#FFFFFF" d="m301.203003,64.509003c-0.700012,-0.790009 -3.820007,-2.290009 -4,-1c-0.480011,3.399994 -2.290009,8.029999 -4.290009,11.789993c-0.681,1.270004 0.809998,2.889999 1.75,4c13.399017,11.320007 29.209991,22.090012 42.869019,28.150009c4.390991,1.529999 9.260986,2.389984 13.949982,2.009995c3.160004,-0.25 7.550018,-0.069992 9.070007,-2.849991c0.350006,-0.650009 -0.149994,-1.529999 -0.580017,-2.12001c-21.208984,-8.749008 -37.468994,-21.059006 -58.768982,-39.979996z"/>
    <path id="svg_9" stroke-linejoin="bevel" stroke="#FFFFFF" d="m292.662994,82.270004c-0.619995,-0.660004 -1.700012,-1.440002 -2.931,-0.930008c-2.880005,3.350006 -4.470001,4.940002 -7.850006,6.429993c-1.079987,0.470001 -2.450012,1.960022 -0.649994,3.5c18.919983,16.040009 33.25,29.690002 52.029999,24.550018c0.600006,-0.160004 0.459991,-2.050018 -0.070007,-2.360016c-11.138977,-6.419983 -23.959991,-13.480988 -40.528992,-31.189987z"/>
    <path id="svg_10" stroke-linejoin="bevel" stroke="#FFFFFF" d="m277.282013,91.98999c-2.949005,-1.98999 -0.489014,0.450012 -13.299988,1.400009c-1.660004,0.12001 0.189972,3.639999 0.779999,5.220001c5.859985,8.529999 15.859985,16.349991 24.289978,20.419998c4.080017,1.980011 9.580017,3.01001 13.640015,0.929993c0.399994,-0.199982 0.48999,-0.919983 0.721008,-1.139984c0.828979,-0.839996 -5.471008,-5.430008 -11.290009,-10.710007c-5.52002,-5.021011 -13.200012,-13.440994 -14.841003,-16.12001z"/>
   </g>
   <path id="svg_11" stroke="#FFFFFF" d="m195.612,155.5c10.160004,0 18.410004,8.25 18.410004,18.410004s-8.25,18.399994 -18.410004,18.399994s-18.399002,-8.23999 -18.399002,-18.399994s8.238998,-18.410004 18.399002,-18.410004z"/>
   <path id="svg_12" stroke-width="0.5" stroke-linejoin="bevel" stroke="#000000" fill="#FFFFFF" d="m200.501999,166.160004c-0.880005,-1.480011 0.369995,-4.139999 3.130005,-3.25c10.660004,4.839996 5.399994,23.470001 -6.380005,22.949997c-1.809998,0.050003 -2.389999,-1.710007 -1.039993,-2.660004c5.149994,-3.5 9.479996,-8.639999 4.289993,-17.039993z"/>
   <path id="svg_13" stroke-linejoin="bevel" stroke="#FFFFFF" d="m259.687988,302.330017c1.188995,-13.25 -9.470001,-28.420013 -26.459991,-29.890015c-5.910004,-0.51001 -14.790009,-0.549988 -19.930008,4.079987c-4.869995,4.390015 7.858994,13.560028 14.540009,14.220001c8.94899,0.880005 13.658997,-3.419983 15.259995,-5.919983c0.550003,-0.840027 1.539993,-0.5 1.889999,0.359985c4.059998,30.312012 -26.826996,37.221985 -49.365005,43.601013c4.667999,1.320984 8.977997,2.619995 12.544998,4.098999c6.315002,2.621002 11.710007,5.442993 16.313004,8.404999c17.681015,-9.139008 33.649017,-21.456024 35.207001,-38.954987z"/>
   <path id="svg_14" stroke-linejoin="bevel" stroke="#FFFFFF" d="m176.638,567.780029c-10.690002,10.909973 -9.850006,27.119995 1.800003,38.719971c-1.800003,-11.929993 -6.210007,-20.910034 7.179993,-31.849976c3.354004,-2.743042 6.630997,-4.728027 10.003006,-6.621033c-3.779999,-2.122986 -7.684998,-4.132996 -11.957001,-6.968994c-2.699005,2.518005 -5.143997,4.802002 -7.026001,6.720032z"/>
   <path id="svg_15" stroke-linejoin="bevel" stroke="#FFFFFF" d="m217.287994,423.509003c-6.986008,-4.442017 -14.610001,-8.368011 -21.666,-12.317993c-4.123001,-2.30899 -8.052002,-4.626007 -11.544006,-7.062012c-19.949997,-13.910004 -20.110001,-37.600006 8.970001,-49.199982c0.839005,-0.334015 1.699997,-0.677002 2.574005,-1.024017c-8.702011,-3.45401 -19.041,-7.548004 -28.858002,-12.621979c-35.285004,22.697998 -23.451996,53.638 -12.766006,65.924988c5.244003,6.019012 12.371017,11.304993 19.957016,16.300995c7.218002,4.753021 14.845993,9.243011 21.666992,13.848999c5.177002,3.494995 9.889999,7.056 13.596008,10.851013c13.089996,13.410004 2.300003,28.449982 -3.110001,32.509979c-3.360001,2.519012 -6.904007,4.778992 -10.486008,6.994019c7.544006,4.66098 15.253006,9.116974 21.811005,15.287994c8.746002,-6.794006 16.653,-15.453003 21.024994,-27.020996c10.082001,-26.684021 -3.5,-41.235016 -21.169998,-52.471008z"/>
   <path id="svg_16" stroke-linejoin="bevel" stroke="#FFFFFF" d="m224.479996,341.283997c-4.603989,-2.960999 -9.998001,-5.783997 -16.312988,-8.404999c-3.567001,-1.479004 -7.877014,-2.777008 -12.545013,-4.098999c-22.536987,-6.378998 -53.423996,-13.289001 -49.363998,-43.600983c0.350006,-0.860016 1.340012,-1.200012 1.880005,-0.360016c1.600006,2.5 6.309998,6.800018 15.270004,5.920013c6.681,-0.660034 19.409988,-9.830017 14.539993,-14.220032c-5.139999,-4.630005 -14.020004,-4.589996 -19.929993,-4.079987c-16.990005,1.470001 -27.650009,16.639984 -26.470001,29.889984c1.563995,17.499023 17.53299,29.81601 35.216003,38.955017c9.816986,5.074005 20.155991,9.167999 28.857986,12.622009c0.875,0.346985 1.736008,0.688995 2.575012,1.023987c29.079987,11.600006 28.919998,35.290009 8.970001,49.200012c-3.492004,2.435974 -7.421005,4.752991 -11.545013,7.061981c7.056,3.950012 14.680008,7.876007 21.666,12.318024c7.584,-4.994995 14.709,-10.282013 19.949005,-16.299988c10.695007,-12.288025 22.529999,-43.228027 -12.757004,-65.926025z"/>
   <path id="svg_17" stroke-linejoin="bevel" stroke="#FFFFFF" d="m214.606995,567.780029c-1.883011,-1.91803 -4.328003,-4.203003 -7.027008,-6.722046c-3.751999,-3.500977 -7.994995,-7.459961 -11.957993,-11.562988c-2.786011,-2.885986 -5.434006,-5.837036 -7.654007,-8.745972c-9.300003,-12.170044 -0.25,-19.98999 6.87001,-23.77002c0.258987,-0.138 0.521988,-0.278015 0.784988,-0.416992c-6.838989,-3.640015 -14.606995,-7.96701 -21.809982,-13.562012c-1.496002,1.407013 -2.936996,2.897003 -4.296005,4.507996c-12.410004,14.700012 -9.169998,32.180969 0,41.649963c5.247009,5.416016 9.880005,9.069031 14.145996,11.900024c4.272003,2.83606 8.177002,4.846008 11.957001,6.968994c3.371002,1.894043 6.645996,3.878052 9.996994,6.621033c13.399994,10.939026 8.990005,19.919983 7.190002,31.849976c11.650009,-11.597961 12.491013,-27.807983 1.800003,-38.717957z"/>
   <path id="svg_18" stroke-linejoin="bevel" stroke="#FFFFFF" d="m221.727997,507.509003c-1.358994,-1.610016 -2.800003,-3.101013 -4.29599,-4.507996c-6.558014,-6.171021 -14.267014,-10.627014 -21.811005,-15.287994c-3.584,-2.215027 -7.130005,-4.476013 -10.492996,-6.994019c-5.400009,-4.059998 -16.200012,-19.100006 -3.101013,-32.509979c3.705002,-3.795013 8.419006,-7.355011 13.595001,-10.851013c-6.820999,-4.605011 -14.44899,-9.096008 -21.666992,-13.848999c-17.669006,11.234985 -31.25,25.787018 -21.167007,52.470001c4.372009,11.567993 12.279007,20.227997 21.025009,27.020996c7.201996,5.595001 14.970993,9.921997 21.809998,13.562012c0.261993,0.139038 0.524994,0.278992 0.783997,0.416992c7.119995,3.778992 16.169998,11.599976 6.869995,23.77002c-2.220993,2.908997 -4.867996,5.859985 -7.654999,8.745972c3.963013,4.103027 8.206009,8.062012 11.958008,11.562988c4.264999,-2.829956 8.897995,-6.482971 14.147003,-11.897949c9.169998,-9.470032 12.410995,-26.95105 0.000992,-41.651031z"/>
  </g>
 </g>
</svg>